# xmcd
# 
# Track frame offsets:
#     150
#     14750
#     25325
#     37655
#     49737
#     61770
#     75587
#     90200
#     103355
#     117975
#     130675
#     142050
#     151175
#     164330
#     177100
#     189120
#     198305
#     210537
# 
# Disc length: 3066
# 
# Revision: 2
# Processed by: cddbd v1.5.2PL0 Copyright (c) Steve Scherf et al.
# Submitted via: fre:ac v1.0.17
# 
DISCID=e20bf812
DTITLE=Various Artist - American Legends CD1
DYEAR=2004
DGENRE=Country
TTITLE0=Glenn Campbell - Rhinestone Cowboy
TTITLE1=Willie Nelson - On the road again
TTITLE2=Dolly Parton - 9 to 5
TTITLE3=Tammy Wynette - Stand by your man
TTITLE4=Charlie Rich - The most beautiful girl
TTITLE5=John Hartford - Gentle on my mind
TTITLE6=Bellamy Brothers - Let your love flow
TTITLE7=Merle Haggard -  Okie from Muskogge
TTITLE8=Waylon Jennings - Luckenbach, Texas (live)
TTITLE9=Johnny Horton - North to Alaska
TTITLE10=Loretta Lynn - Love ist the foundation
TTITLE11=Frankie Laine - Rawhide
TTITLE12=David Houston - Almost persuaded
TTITLE13=Pastsy Cline - I fall to pieces
TTITLE14=Eddy Arnold - Make the world go away
TTITLE15=Charley Pride - Kiss an angel good morning
TTITLE16=Georges Jones - The door
TTITLE17=Marty Robbins - El Paso
EXTD=
EXTT0=
EXTT1=
EXTT2=
EXTT3=
EXTT4=
EXTT5=
EXTT6=
EXTT7=
EXTT8=
EXTT9=
EXTT10=
EXTT11=
EXTT12=
EXTT13=
EXTT14=
EXTT15=
EXTT16=
EXTT17=
PLAYORDER=
